<svg width="346" height="344" viewBox="0 0 346 344" fill="none" xmlns="http://www.w3.org/2000/svg">
<path fill-rule="evenodd" clip-rule="evenodd" d="M116.522 2.772C112.008 4.876 98.219 11.202 45.522 35.346C36.172 39.63 22.222 46.008 14.522 49.519L0.522003 55.904L0 139L19.261 151.36C41.517 165.642 62.571 178.327 64.02 178.327C64.677 178.327 65.022 159.228 65.022 122.827C65.022 92.302 65.177 67.327 65.366 67.327C65.556 67.327 78.953 73.794 95.139 81.698C111.324 89.603 126.582 96.991 129.044 98.117C131.507 99.244 142.459 104.473 153.381 109.739L173.241 119.312L184.381 113.933C216.61 98.373 225.857 93.889 251.925 81.177C267.547 73.56 280.484 67.327 280.675 67.327C280.866 67.327 281.022 92.504 281.022 123.276V179.226L288.272 175.129C294.992 171.332 319.224 156.275 337.157 144.753L344.793 139.847L345.231 127.837C345.473 121.232 345.463 102.249 345.21 85.653L344.751 55.478L338.636 52.758C332.035 49.821 326.487 47.282 277.022 24.557C259.147 16.345 239.686 7.46 233.776 4.813L223.03 0L211.276 5.599C204.811 8.678 193.793 13.927 186.79 17.262C179.788 20.598 173.668 23.327 173.192 23.327C172.715 23.327 161.504 18.152 148.28 11.827C135.055 5.502 123.624 0.352998 122.878 0.384998C122.132 0.415998 119.272 1.491 116.522 2.772ZM163.552 146.609C152.926 152.627 151.258 166.093 160.097 174.509L163.963 178.191L162.713 204.327H172.899C181.105 204.327 183.199 204.031 183.67 202.802C183.992 201.963 183.715 196.225 183.055 190.052L181.854 178.827L186.335 174.167C189.505 170.87 191.012 168.344 191.488 165.53C192.827 157.603 188.632 149.268 181.632 145.946C176.632 143.574 168.377 143.876 163.552 146.609ZM1.57401 192.943C7.32101 218.166 14.666 233.01 31.276 252.966C44.97 269.419 69.71 289.862 94.111 304.885C100.937 309.088 107.76 313.169 109.272 313.953L112.022 315.378V265.676L101.272 259.33C59.646 234.76 36.24 218.797 7.219 195.186C1.054 190.17 0.931005 190.121 1.57401 192.943ZM334.022 198.957C305.826 221.606 281.685 237.881 242.272 260.812L234.022 265.612V290.47C234.022 304.141 234.277 315.327 234.589 315.327C235.592 315.327 258.258 301.25 266.522 295.495C289.462 279.519 310.507 259.816 322.27 243.301C325.982 238.09 331.252 229.321 333.981 223.813C338.676 214.34 344.52 195.939 343.836 192.781C343.624 191.798 340.443 193.8 334.022 198.957ZM131.022 325.333L141.272 330.373C146.909 333.145 156.214 337.464 161.949 339.971C174.334 345.386 171.647 345.849 197.022 333.925L214.522 325.701L215.038 209.354L194.945 219.341C183.894 224.833 174.238 229.327 173.487 229.327C172.736 229.327 162.874 224.859 151.572 219.399L131.022 209.471V325.333Z" fill="#3B82F6"/>
</svg>
